<?xml version="1.0" encoding="UTF-8" standalone="no"?>
<svg
   xmlns:dc="http://purl.org/dc/elements/1.1/"
   xmlns:cc="http://creativecommons.org/ns#"
   xmlns:rdf="http://www.w3.org/1999/02/22-rdf-syntax-ns#"
   xmlns:svg="http://www.w3.org/2000/svg"
   xmlns="http://www.w3.org/2000/svg"
   id="svg4"
   version="1.1"
   height="152.04398"
   width="750">
  <metadata
     id="metadata10">
    <rdf:RDF>
      <cc:Work
         rdf:about="">
        <dc:format>image/svg+xml</dc:format>
        <dc:type
           rdf:resource="http://purl.org/dc/dcmitype/StillImage" />
        <dc:title></dc:title>
      </cc:Work>
    </rdf:RDF>
  </metadata>
  <defs
     id="defs8" />
  <path
     style="fill:#00569f;fill-rule:evenodd;stroke-width:1.28288698"
     id="path2"
     d="M 546.9549,62.177685 531.86302,44.499502 514.73134,66.665224 h 36.03502 l -3.81018,-4.487539 z m 132.30029,71.617165 11.07388,-0.39898 c 0.52085,1.84864 1.73575,3.3586 3.65366,4.54784 1.9269,1.18025 4.9032,2.13472 8.93018,2.8634 4.02698,0.72868 8.56584,1.09302 13.60887,1.09302 4.48753,0 8.42728,-0.2771 11.86414,-0.82489 3.42787,-0.55549 5.98851,-1.31112 7.65498,-2.28226 1.67545,-0.96345 2.52601,-2.01285 2.52601,-3.15847 0,-1.1546 -0.80694,-2.16166 -2.43877,-3.0289 -1.61387,-0.86723 -4.27843,-1.58821 -7.97571,-2.17834 -2.39515,-0.3823 -7.63703,-0.9891 -15.80389,-1.80502 -8.13222,-0.81591 -13.86031,-1.57923 -17.12269,-2.30021 -4.23481,-0.91983 -7.39456,-2.07443 -9.47669,-3.43686 -2.06544,-1.3714 -3.09817,-2.89932 -3.09817,-4.59915 0,-1.85762 1.25851,-3.60234 3.8012,-5.21622 2.5337,-1.62285 6.25792,-2.8557 11.13546,-3.69728 4.89421,-0.83259 10.30158,-1.24953 16.27214,-1.24953 6.58762,0 12.37601,0.43362 17.41775,1.31881 5.01609,0.87621 8.87886,2.17834 11.58576,3.88843 2.68123,1.71009 4.14885,3.65366 4.35668,5.81533 l -11.25605,0.35536 c -0.61579,-2.33486 -2.66456,-4.10524 -6.15273,-5.2855 -3.49715,-1.19821 -8.63511,-1.78834 -15.4575,-1.78834 -7.10848,0 -12.26312,0.53753 -15.53448,1.62285 -3.23673,1.08532 -4.86856,2.38617 -4.86856,3.90511 0,1.33677 1.1546,2.42979 3.44584,3.28034 2.27327,0.85953 8.15787,1.73575 17.70512,2.62992 9.54725,0.90315 16.08997,1.68315 19.6487,2.35153 5.16362,0.99809 8.98277,2.24762 11.43822,3.76655 2.46442,1.51894 3.67932,3.27137 3.67932,5.25086 0,1.96153 -1.34575,3.81017 -4.04494,5.54592 -2.70818,1.73575 -6.59533,3.08919 -11.65503,4.06162 -5.05971,0.95447 -10.76214,1.44068 -17.08806,1.44068 -8.02831,0 -14.76218,-0.48621 -20.17853,-1.45864 -5.43303,-0.97243 -9.6858,-2.43877 -12.78397,-4.39132 -3.08149,-1.95256 -4.71204,-4.17452 -4.85957,-6.63894 m -78.43957,11.86414 v -36.91122 h 64.14564 v 4.35668 h -52.41107 v 11.29967 h 49.08711 v 4.33102 h -49.08711 v 12.56716 h 54.47652 v 4.35669 z m -89.87778,0 v -36.91122 h 12.04631 l 46.60472,28.97913 v -28.97913 h 11.25605 v 36.91122 h -12.04631 l -46.60472,-29.00479 v 29.00479 z m -32.31079,-36.91122 h 11.73328 v 36.91122 h -11.73328 z m -71.42602,36.91122 v -36.91122 h 11.75124 v 32.55453 h 43.68872 v 4.35669 z m -77.10279,-20.62113 h 25.24721 c 5.35477,0 9.56393,-0.22578 12.58384,-0.69404 3.0289,-0.46055 5.32911,-1.20591 6.89937,-2.21298 1.57025,-1.01604 2.35153,-2.11804 2.35153,-3.31498 0,-1.74472 -1.50996,-3.17643 -4.56451,-4.30408 -3.03788,-1.11996 -7.85384,-1.68315 -14.44146,-1.68315 h -28.07598 v 12.21052 z m -11.73329,20.62113 v -36.91122 h 39.34102 c 7.90643,0 13.9206,0.33868 18.02584,0.99808 4.11422,0.65941 7.39456,1.83068 9.87695,3.50613 2.45673,1.68315 3.67932,3.54077 3.67932,5.5626 0,2.62094 -2.02183,4.82494 -6.11809,6.62226 -4.0706,1.79604 -10.37086,2.94166 -18.8764,3.42787 3.11613,0.61579 5.46766,1.23286 7.08154,1.83966 a 54.073689,54.073689 0 0 1 9.75507,4.9032 l 15.43056,10.05013 h -14.77116 l -11.73328,-7.68064 c -3.42788,-2.21298 -6.25792,-3.91409 -8.49656,-5.08536 -2.204,-1.17128 -4.19248,-1.99618 -5.9449,-2.46443 a 34.809857,34.809857 0 0 0 -5.34579,-0.98911 c -1.34575,-0.11289 -3.51511,-0.16549 -6.55299,-0.16549 h -13.61656 v 16.38503 H 318.3688 Z m -32.61484,-36.91122 h 11.73329 v 36.91122 h -11.73329 z m -68.83202,21.74878 h 30.09782 l -9.27784,-10.21435 c -2.81209,-3.10715 -4.91218,-5.65881 -6.2746,-7.65498 -1.13664,2.36949 -2.72486,4.71204 -4.7903,7.04689 z M 84.499784,79.646758 74.692113,96.692478 H 94.462685 Z M 64.157045,94.765582 c -7.307325,0.53753 -17.22789,3.775537 -27.294705,9.321458 -17.58325,9.6858 -28.9611749,22.75585 -25.420406,29.17798 3.540768,6.43111 20.672441,3.79221 38.247994,-5.8923 11.664009,-6.42213 20.603165,-14.34652 24.265808,-20.81997 H 57.379552 L 64.158328,94.766865 Z M 35.221528,93.472432 C 47.72711,87.258127 60.1647,84.507617 69.563131,85.358171 l -4.105239,7.143115 4.651749,-8.097583 C 64.962698,76.289443 61.534824,63.878794 61.152523,49.818352 45.721958,58.037809 35.220245,74.28429 35.220245,92.97852 v 0.495195 z M 110.78742,133.91544 C 97.604474,125.87046 88.075191,115.64713 84.490804,106.55147 h -0.451576 c -3.602347,9.1303 -13.208605,19.40623 -26.478788,27.46789 a 48.585498,48.585498 0 0 0 26.531386,7.83715 c 9.850007,0 19.023924,-2.92498 26.695594,-7.94107 m -3.25469,-83.828965 c -0.41693,13.807713 -3.76655,26.010535 -8.800596,34.07348 l -5.606217,-9.589581 c 2.899327,-6.665881 4.746677,-16.663419 4.746677,-27.833517 0,-20.074616 -5.953874,-36.346755 -13.295836,-36.346755 -7.332983,0 -13.286861,16.272139 -13.286861,36.346755 0,11.022566 1.796041,20.89823 4.63507,27.564111 l -3.393236,5.8923 11.846179,-20.586488 27.45121,46.9434 H 94.575579 c 3.653665,6.47473 12.592811,14.39784 24.256821,20.81998 17.58325,9.68579 34.70595,12.32341 38.248,5.90127 3.54077,-6.43111 -7.83716,-19.50116 -25.42041,-29.18696 -9.78971,-5.389405 -19.44985,-8.600471 -26.6956,-9.268855 l -5.554896,-9.494647 c 9.259876,-0.7197 21.358786,1.987192 33.552626,7.984689 l 0.008,-0.329702 c 0,-18.4941 -10.28491,-34.585352 -25.43709,-42.890763 M 84.343272,0 c 11.368942,0 20.837928,16.576183 22.843078,38.464802 21.32415,8.913499 36.31212,29.968241 36.31212,54.511153 0,2.074428 -0.11289,4.130896 -0.32072,6.152726 18.94568,12.401669 29.44739,29.177979 23.84117,39.349989 -5.59723,10.17201 -25.39475,10.25027 -46.00689,0.85954 a 58.797279,58.797279 0 0 1 -36.581521,12.70571 c -13.869292,0 -26.617341,-4.7903 -36.702116,-12.80065 -20.681422,9.48567 -40.5995259,9.43435 -46.2237023,-0.7723 -5.633157,-10.22332 5.0160884,-27.12151 24.1618943,-39.548834 a 61.059008,61.059008 0 0 1 -0.295064,-5.944899 c 0,-24.473636 14.902016,-45.477062 36.129948,-54.432896 C 63.497641,16.613387 72.96663,0.001282 84.344555,0.001282 M 191.32835,145.65771 225.40953,108.74649 h 12.64541 l 36.3211,36.91122 h -13.39077 l -10.3452,-11.1778 h -37.10238 l -9.72942,11.1778 z M 750,23.555088 v 17.678184 h -3.81018 c -2.3092,-4.079581 -4.88652,-6.934005 -7.61137,-8.704389 -2.8557,-1.901238 -6.66588,-3.263664 -11.56009,-4.347704 -2.71587,-0.54651 -7.48052,-0.815916 -14.27725,-0.815916 h -10.88273 l 0.2694,21.072702 h 0.13856 v 29.376831 c 0,3.263664 0.40795,5.442006 1.22387,6.257923 0.81592,0.815916 2.44775,1.49328 4.8955,2.178342 2.31689,0.677364 5.58055,0.945487 9.78971,0.945487 h 4.90319 v 1.770385 H 646.6442 v -1.770385 h 4.89422 c 4.21813,0 7.62034,-0.269406 10.20665,-0.945487 1.90123,-0.54651 3.26366,-1.232855 4.3477,-2.447749 0.81592,-0.685061 1.22387,-2.724852 1.22387,-5.988516 V 65.846742 l -0.40795,-38.481479 h -10.60563 c -9.78971,0 -16.86355,0.945488 -21.35879,2.715872 -6.24894,2.715872 -10.19767,6.387494 -11.8295,11.152137 h -4.07958 V 23.555088 H 749.99871 Z M 503.03654,69.387511 542.88045,22.739172 h 1.77038 l 25.83735,30.19403 h 0.13855 l 12.50558,14.823759 6.66588,7.880775 c 4.21814,5.034049 7.74992,8.166859 10.47478,9.381753 2.16936,1.09302 5.03405,1.640813 8.83524,1.770384 v 1.770384 h -59.97112 v -1.770384 h 2.44775 c 4.75566,0 8.15788,-0.407958 10.06681,-1.085322 1.35345,-0.407958 2.03081,-1.223874 2.03081,-2.178342 0,-0.54651 -0.13085,-1.085323 -0.53753,-1.770384 -0.13855,-0.269407 -0.95446,-1.493281 -2.72485,-3.531788 L 553.89403,70.20471 H 510.1091 l -5.31115,6.257923 c -1.63183,2.03081 -2.57732,3.801194 -2.57732,5.16362 0,1.901239 1.49328,3.12383 4.21813,4.079581 1.63183,0.407958 5.71013,0.815916 12.23746,1.085322 v 1.770384 h -41.34617 v -1.770384 c 4.48754,-0.407958 8.15788,-1.353446 11.02257,-2.855706 2.84673,-1.631833 6.38749,-4.895497 10.59665,-9.789711 l 4.08727,-4.755663 z M 465.362,23.555088 v 21.896316 h -4.07958 c -2.99426,-5.71013 -8.56584,-10.066814 -16.72372,-13.191927 -8.0283,-2.994258 -17.27022,-4.487539 -27.60772,-4.487539 -8.70439,0 -16.59415,1.085323 -23.80654,3.393236 -7.20341,2.316894 -12.36703,5.172601 -15.76925,8.844224 -3.13281,3.402216 -5.03405,7.073839 -5.84996,11.013585 h 0.2694 a 25.67057,25.67057 0 0 0 -0.40795,4.62609 c 0,5.571579 1.50097,10.744179 4.62609,15.36129 3.12383,4.62609 8.0283,8.166859 14.68392,10.474772 6.66588,2.447749 15.37027,3.531788 25.84504,3.531788 8.70439,0 16.72372,-0.815916 23.93611,-2.57732 7.20341,-1.770384 14.82376,-4.62609 22.84309,-8.973794 v 5.433026 c -7.74992,3.671623 -15.77823,6.396475 -24.20552,8.028307 -8.29643,1.631832 -18.08614,2.447749 -29.37811,2.447749 -14.68392,0 -27.7373,-1.223875 -39.29739,-3.939746 -10.06682,-2.456729 -18.22598,-5.710131 -24.2145,-10.066815 l -0.40795,0.138552 c -0.81592,-0.54651 -1.49329,-1.09302 -2.16937,-1.631833 -6.25792,-5.1726 -9.39073,-10.474772 -9.39073,-16.186185 0,-5.979537 3.54077,-11.698647 10.33622,-17.140654 6.93401,-5.302172 16.18619,-9.512607 27.88483,-12.505583 11.8295,-2.994258 24.20552,-4.487539 37.39744,-4.487539 9.65116,0 19.98738,0.945488 30.73156,2.855707 6.25793,1.085322 10.19767,1.770384 11.96806,1.770384 2.17834,0 4.07958,-0.407958 5.58055,-1.09302 1.63184,-0.815916 2.71588,-1.901238 3.12383,-3.531788 h 4.07958 z m -154.89963,0 1.49328,21.072703 h -5.57158 c -2.5863,-5.294475 -9.11234,-9.512607 -19.44856,-12.774989 -10.33622,-3.13281 -21.48836,-4.764643 -33.45642,-4.764643 -9.2432,0 -16.58516,0.815916 -22.02717,2.447749 -5.442,1.770384 -8.0283,3.671623 -8.0283,5.849965 0,1.362426 0.95447,2.724852 2.8557,3.810174 2.5863,1.353446 6.80444,2.855707 12.65312,4.218133 4.21813,1.085322 14.14639,2.846726 29.50768,5.433026 a 476.69516,476.69516 0 0 1 15.49984,2.863404 h 0.54651 c 13.19193,2.57732 22.57368,5.025069 28.15424,7.472817 7.48052,3.13281 11.15214,6.804433 11.15214,11.022566 0,5.16362 -5.98852,9.789711 -17.95657,13.599885 -3.80119,1.085322 -7.88847,2.169362 -12.37601,2.985278 -9.65116,1.770384 -20.8033,2.5863 -33.58727,2.5863 -5.71013,0 -11.29068,-0.138551 -16.45559,-0.546509 -5.1726,-0.407959 -11.69864,-1.223875 -19.44857,-2.309197 -4.48753,-0.54651 -8.01932,-0.815916 -10.74417,-0.815916 -2.44775,0 -4.89422,0.269406 -7.61137,0.815916 -2.5863,0.677364 -4.76465,1.631832 -6.39648,2.855706 h -5.03405 v -8.844223 l -0.40795,0.138552 V 65.709473 h 0.40795 v -0.130854 h 5.03405 c 4.07958,6.665881 11.69865,11.829501 23.12019,15.37027 11.42155,3.531788 23.659,5.302172 36.84965,5.302172 10.20665,0 18.36453,-0.954468 24.35304,-2.863404 5.97954,-1.901239 9.10465,-4.079581 9.10465,-6.656901 0,-0.954468 -0.53753,-1.908936 -1.63183,-2.855707 l -0.40796,-0.138551 c -0.53753,-0.407958 -1.08532,-0.815916 -1.90124,-1.223875 -2.31689,-1.362426 -5.84996,-2.724852 -10.60562,-3.939746 -4.62609,-1.362426 -13.06108,-2.994258 -25.02143,-4.903194 -16.7327,-2.855706 -28.8393,-5.302172 -36.18255,-7.203411 -7.48051,-2.03979 -13.05337,-4.218132 -16.99312,-6.665881 -3.94873,-2.447748 -5.98852,-5.1726 -5.98852,-8.157878 0,-5.034049 5.44201,-9.252182 16.18619,-12.78397 10.87503,-3.531788 24.47364,-5.302172 40.92923,-5.302172 5.98851,0 11.83848,0.269407 17.41006,0.815916 4.35668,0.269407 9.5203,0.954468 15.63967,2.039791 6.11809,0.954468 10.47478,1.49328 12.92252,1.49328 2.3092,0 4.21814,-0.269406 5.57158,-0.815916 1.36243,-0.407958 2.5863,-1.631832 3.81018,-3.531788 h 4.07958 z" />
</svg>
