<?xml version="1.0" encoding="UTF-8" standalone="no"?>
<svg
   xmlns:dc="http://purl.org/dc/elements/1.1/"
   xmlns:cc="http://creativecommons.org/ns#"
   xmlns:rdf="http://www.w3.org/1999/02/22-rdf-syntax-ns#"
   xmlns:svg="http://www.w3.org/2000/svg"
   xmlns="http://www.w3.org/2000/svg"
   viewBox="0 0 710.66669 214.66667"
   height="214.66667"
   width="710.66669"
   xml:space="preserve"
   id="svg2"
   version="1.1"><metadata
     id="metadata8"><rdf:RDF><cc:Work
         rdf:about=""><dc:format>image/svg+xml</dc:format><dc:type
           rdf:resource="http://purl.org/dc/dcmitype/StillImage" /><dc:title></dc:title></cc:Work></rdf:RDF></metadata><defs
     id="defs6" /><g
     transform="matrix(1.3333333,0,0,-1.3333333,0,214.66667)"
     id="g10"><g
       transform="scale(0.1)"
       id="g12"><path
         id="path14"
         style="fill:#8b8441;fill-opacity:1;fill-rule:evenodd;stroke:none"
         d="M 181.762,973.566 1187.12,1608.9 c -7.7,-63.22 23.76,-146.72 -126.57,-259.02 166.5,-86.37 166.5,-294.2 9.27,-336.24 -81.203,-10.16 -129.496,20.57 -145.019,92.52 13.461,89.55 73.019,64.83 77.299,27.85 14.84,-84.1 88.83,-68.76 104.7,6.18 17.69,235.32 -382.855,140.71 -255.8,-104.9 -85.359,31.83 -150.086,10.41 -194.414,-64.602 24.125,-65.387 76.578,-102.368 191.219,-77.051 -136.239,-231.098 225.615,-338.824 252.945,-123.598 -8.32,99.836 -78.21,106.941 -98.65,30.852 -14.565,-48.243 -75.205,-54.387 -80.248,9.254 0.242,136.484 220.448,147.625 256.068,-3.055 24.23,-85.535 -18.54,-157.906 -117.37,-218.895 99.26,-89.57 124.88,-178.945 117.37,-268.343 L 181.762,973.566" /><path
         id="path16"
         style="fill:#878a8e;fill-opacity:1;fill-rule:evenodd;stroke:none"
         d="M 5.92188,635.598 267.352,800.891 484.305,659.047 c -6.422,-7.875 -12.446,-16.586 -18.282,-26.348 22.805,-61.476 71.223,-97.023 175.825,-76.629 l 6.078,-4.086 C 534.715,349.098 820.848,247.504 885.344,396.977 L 954.57,351.684 C 934.664,319.191 901.93,289.547 857.492,262.164 953.543,175.617 978.633,88.8242 970.984,2.08203 Z M 795.355,455.867 c -19.73,-34.836 -67.851,-34.293 -72.3,21.528 0,8.418 0.89,16.429 2.461,23.937 l 69.839,-45.465" /><path
         id="path18"
         style="fill:#1f4fa2;fill-opacity:1;fill-rule:evenodd;stroke:none"
         d="M 1591.75,1059.05 1487.57,1078 c 11.78,41.86 31.88,72.91 60.39,92.99 28.76,20.27 71.22,30.2 127.46,30.2 51.24,0 89.45,-6.07 114.34,-18.23 25.15,-12.15 42.83,-27.37 52.99,-46 10.23,-18.84 15.48,-52.89 15.48,-102.75 l -1.46,-133.956 c 0,-38.129 1.93,-66.297 5.78,-84.504 3.5,-17.812 10.46,-37.363 20.57,-57.984 h -113.75 c -2.95,7.683 -6.74,18.754 -10.88,33.8 -1.99,6.864 -3.24,11.368 -4.15,13.532 -19.61,-19.137 -40.54,-33.383 -62.86,-43.075 -22.26,-9.375 -46.2,-14.07 -71.46,-14.07 -44.63,0 -79.88,12.098 -105.56,36.387 -25.86,24.18 -38.5,54.754 -38.5,91.976 0,24.239 5.83,46.254 17.39,65.387 11.78,19.192 28.44,33.926 49.32,43.965 20.92,10.285 51.49,19.242 91.37,26.942 53.41,10.06 90.58,19.5 111.15,28.04 v 11.44 c 0,22.19 -5.47,37.94 -16.29,47.21 -10.77,9.44 -31.17,14.14 -61.42,14.14 -20.62,0 -36.57,-4.03 -47.88,-12.1 -11.49,-7.88 -20.69,-22.07 -27.85,-42.29 z m 153.44,-92.987 c -14.56,-5.118 -37.77,-10.899 -69.77,-17.688 -31.71,-6.859 -52.57,-13.41 -62.51,-19.852 -14.71,-10.753 -22.19,-24.234 -22.19,-40.472 0,-16.184 5.91,-29.961 17.86,-41.571 11.98,-11.98 27.21,-17.738 45.66,-17.738 20.76,0 40.44,6.86 59.26,20.442 13.95,10.285 23.03,22.855 27.3,38.011 3.13,9.762 4.39,28.528 4.39,56.012 z m 225.93,284.087 v 106.3 H 2086 v -106.3 z m 0,-492.384 V 1191.33 H 2086 V 757.766 Z m 342.56,0 h -114.95 v 433.564 h 106.64 v -61.72 c 18.11,29.18 34.59,48.66 49.15,57.68 14.56,9.33 30.98,13.9 49.45,13.9 26.34,0 51.49,-7.03 75.84,-21.72 l -35.6,-99.95 c -19.36,12.57 -37.29,18.75 -54.02,18.75 -16.06,0 -29.53,-4.26 -40.72,-13.24 -11.26,-8.83 -19.92,-24.77 -26.34,-47.99 -6.32,-23.1 -9.45,-71.571 -9.45,-145.27 z m 533.61,301.284 -104.2,18.95 c 11.68,41.86 31.83,72.91 60.39,92.99 28.83,20.27 71.1,30.2 127.48,30.2 51.42,0 89.13,-6.07 114.47,-18.23 24.95,-12.15 42.58,-27.37 52.79,-46 10.23,-18.84 15.23,-52.89 15.23,-102.75 l -1.15,-133.956 c 0,-38.129 1.74,-66.297 5.6,-84.504 3.49,-17.812 10.58,-37.363 20.69,-57.984 h -113.87 c -2.83,7.683 -6.55,18.754 -10.88,33.8 -1.8,6.864 -3.25,11.368 -4.03,13.532 -19.68,-19.137 -40.49,-33.383 -62.81,-43.075 -22.31,-9.375 -46.2,-14.07 -71.63,-14.07 -44.58,0 -79.76,12.098 -105.51,36.387 -25.74,24.18 -38.56,54.754 -38.56,91.976 0,24.239 5.96,46.254 17.52,65.387 11.73,19.192 28.26,33.926 49.25,43.965 20.93,10.285 51.56,19.242 91.26,26.942 53.66,10.06 90.88,19.5 111.4,28.04 v 11.44 c 0,22.19 -5.48,37.94 -16.24,47.21 -11.02,9.44 -31.41,14.14 -61.78,14.14 -20.46,0 -36.21,-4.03 -47.69,-12.1 -11.51,-7.88 -20.64,-22.07 -27.73,-42.29 z m 153.44,-92.987 c -14.56,-5.118 -37.84,-10.899 -69.77,-17.688 -31.78,-6.859 -52.59,-13.41 -62.44,-19.852 -14.98,-10.753 -22.45,-24.234 -22.45,-40.472 0,-16.184 5.9,-29.961 17.93,-41.571 12.08,-11.98 27.25,-17.738 45.66,-17.738 20.93,0 40.42,6.86 59.31,20.442 13.83,10.285 23.1,22.855 27.31,38.011 3.12,9.762 4.45,28.528 4.45,56.012 z m 185.56,-84.7 115.18,17.754 c 4.82,-22.258 14.69,-39.457 29.89,-51.012 14.86,-11.542 35.68,-17.324 62.81,-17.324 29.66,0 51.91,5.414 66.83,16.535 10.22,7.454 15.21,17.758 15.21,30.329 0,8.71 -2.71,16.168 -8.12,21.949 -5.7,5.359 -18.64,10.281 -38.38,15.031 -92.5,20.34 -151.26,39.043 -176.06,55.766 -34.27,23.589 -51.47,56.009 -51.47,97.929 0,37.35 14.72,69.06 44.63,94.43 29.59,25.75 75.6,38.44 137.86,38.44 59.37,0 103.64,-9.74 132.28,-28.75 28.98,-19.49 48.83,-48.12 59.53,-86.08 l -108.02,-19.9 c -4.75,16.9 -13.42,29.95 -26.35,38.74 -12.93,9.13 -31.34,13.59 -55.4,13.59 -30.2,0 -51.91,-4.16 -64.97,-12.63 -8.53,-6.07 -12.99,-13.9 -12.99,-23.41 0,-8.18 3.91,-15.04 11.5,-20.75 10.4,-7.7 45.95,-18.47 107.13,-32.23 61.18,-13.89 103.81,-30.797 128.17,-51.258 23.83,-20.274 35.91,-48.785 35.91,-84.996 0,-40.051 -16.53,-74.274 -50.03,-102.911 -33.09,-28.582 -82.12,-42.652 -147.26,-42.652 -59.12,0 -105.93,12.098 -140.21,36.16 -34.58,23.746 -57.21,56.239 -67.67,97.25 z m 704.37,309.967 v -91.37 h -78.33 V 925.047 c 0,-35.371 0.61,-56.063 2.41,-61.844 1.33,-5.777 4.65,-10.527 10.06,-14.437 5.22,-3.911 11.91,-5.711 19.48,-5.711 10.53,0 26.04,3.738 46.08,11.125 l 9.8,-89.012 c -26.65,-11.559 -56.91,-17.215 -90.71,-17.215 -20.76,0 -39.27,3.735 -55.87,10.285 -16.61,6.93 -28.7,16.129 -36.58,27.063 -7.82,11.066 -12.94,25.875 -15.99,44.816 -2.48,13.184 -3.86,40.367 -3.86,80.789 v 189.054 h -52.7 v 91.37 h 52.7 v 86.37 l 115.18,66.84 V 1191.33 Z M 4056.2,1059.05 3951.84,1078 c 11.84,41.86 31.98,72.91 60.62,92.99 28.63,20.27 70.99,30.2 127.33,30.2 51.32,0 89.4,-6.07 114.54,-18.23 24.9,-12.15 42.58,-27.37 52.87,-46 10.1,-18.84 15.28,-52.89 15.28,-102.75 l -1.26,-133.956 c 0,-38.129 1.8,-66.297 5.46,-84.504 3.74,-17.812 10.72,-37.363 20.64,-57.984 h -113.68 c -2.83,7.683 -6.62,18.754 -10.71,33.8 -2.05,6.864 -3.36,11.368 -4.2,13.532 -19.62,-19.137 -40.66,-33.383 -62.87,-43.075 -22.37,-9.375 -46.19,-14.07 -71.45,-14.07 -44.75,0 -79.83,12.098 -105.63,36.387 -25.69,24.18 -38.73,54.754 -38.73,91.976 0,24.239 5.94,46.254 17.67,65.387 11.8,19.192 28.21,33.926 49.2,43.965 21.24,10.285 51.49,19.242 91.25,26.942 53.65,10.06 90.95,19.5 111.53,28.04 v 11.44 c 0,22.19 -5.53,37.94 -16.48,47.21 -10.77,9.44 -31.17,14.14 -61.48,14.14 -20.51,0 -36.45,-4.03 -47.87,-12.1 -11.26,-7.88 -20.52,-22.07 -27.67,-42.29 z m 153.5,-92.987 c -14.74,-5.118 -37.96,-10.899 -69.91,-17.688 -31.62,-6.859 -52.5,-13.41 -62.36,-19.852 -15.04,-10.753 -22.56,-24.234 -22.56,-40.472 0,-16.184 6.02,-29.961 18.1,-41.571 11.86,-11.98 27.07,-17.738 45.66,-17.738 20.81,0 40.42,6.86 59.31,20.442 14,10.285 22.79,22.855 27.31,38.011 3.13,9.762 4.45,28.528 4.45,56.012 z m 620.4,-208.297 h -114.71 v 221.355 c 0,46.839 -2.48,76.979 -7.4,90.699 -4.93,13.84 -12.75,24.54 -23.89,32.31 -11.12,7.5 -24.18,11.31 -39.75,11.31 -19.91,0 -37.66,-5.36 -53.53,-16.43 -15.94,-10.9 -26.65,-25.19 -32.48,-43.37 -6.02,-17.81 -8.73,-51.07 -8.73,-99.663 V 757.766 h -114.88 v 433.564 h 106.47 v -63.64 c 37.93,49.08 85.71,73.5 143.27,73.5 25.07,0 48.36,-4.57 69.42,-13.48 20.86,-9.32 36.68,-20.81 47.34,-35.05 10.75,-14.32 18.27,-30.33 22.36,-48.2 4.45,-18.1 6.51,-43.61 6.51,-77.05 z m 202.22,301.284 -104.23,18.95 c 11.79,41.86 31.88,72.91 60.39,92.99 28.69,20.27 71.03,30.2 127.46,30.2 51.29,0 89.33,-6.07 114.47,-18.23 24.89,-12.15 42.58,-27.37 52.79,-46 10.16,-18.84 15.23,-52.89 15.23,-102.75 l -1.15,-133.956 c 0,-38.129 1.69,-66.297 5.55,-84.504 3.67,-17.812 10.7,-37.363 20.69,-57.984 h -113.7 c -3,7.683 -6.62,18.754 -11.07,33.8 -1.68,6.864 -3.18,11.368 -3.84,13.532 -19.61,-19.137 -40.72,-33.383 -62.86,-43.075 -22.38,-9.375 -46.26,-14.07 -71.63,-14.07 -44.58,0 -79.88,12.098 -105.51,36.387 -25.74,24.18 -38.62,54.754 -38.62,91.976 0,24.239 5.83,46.254 17.44,65.387 11.8,19.192 28.39,33.926 49.27,43.965 21.16,10.285 51.61,19.242 91.37,26.942 53.48,10.06 90.65,19.5 111.27,28.04 v 11.44 c 0,22.19 -5.29,37.94 -16.29,47.21 -10.72,9.44 -31.27,14.14 -61.48,14.14 -20.57,0 -36.39,-4.03 -47.94,-12.1 -11.37,-7.88 -20.45,-22.07 -27.61,-42.29 z m 153.32,-92.987 c -14.62,-5.118 -37.71,-10.899 -69.7,-17.688 -31.71,-6.859 -52.57,-13.41 -62.51,-19.852 -14.91,-10.753 -22.36,-24.234 -22.36,-40.472 0,-16.184 5.93,-29.961 17.91,-41.571 11.98,-11.98 27.13,-17.738 45.78,-17.738 20.64,0 40.49,6.86 59.12,20.442 14.02,10.285 23.1,22.855 27.55,38.011 2.9,9.762 4.21,28.528 4.21,56.012 v 22.856" /></g></g></svg>